<?xml version="1.0" encoding="iso-8859-1"?>
<!-- Uploaded to: SVG Repo, www.svgrepo.com, Generator: SVG Repo Mixer Tools -->
<svg height="800px" width="800px" version="1.1" id="Layer_1" xmlns="http://www.w3.org/2000/svg" xmlns:xlink="http://www.w3.org/1999/xlink" 
	 viewBox="0 0 512.003 512.003" xml:space="preserve">
<circle style="fill:#FDDF6D;" cx="256.001" cy="256.001" r="256.001"/>
<path style="fill:#FCC56B;" d="M310.859,474.208c-141.385,0-256-114.615-256-256c0-75.537,32.722-143.422,84.757-190.281
	C56.738,70.303,0,156.525,0,256c0,141.385,114.615,256,256,256c65.849,0,125.883-24.87,171.243-65.718
	C392.325,464.135,352.77,474.208,310.859,474.208z"/>
<g>
	<path style="fill:#FFFFFF;" d="M382.337,176.758c0,19.207,15.57,34.776,34.776,34.776c19.207,0,34.776-15.57,34.776-34.776H334.19"
		/>
	<path style="fill:#FFFFFF;" d="M204.457,176.758c0,19.207,15.57,34.776,34.776,34.776s34.776-15.57,34.776-34.776H156.31"/>
</g>
<g>
	<path style="fill:#F9A880;" d="M145.987,240.152c-19.011,0-34.425,15.412-34.425,34.425h68.848
		C180.41,255.564,164.998,240.152,145.987,240.152z"/>
	<path style="fill:#F9A880;" d="M446.251,235.539c-19.011,0-34.425,15.412-34.425,34.425h68.848
		C480.676,250.951,465.264,235.539,446.251,235.539z"/>
</g>
<g>
	<path style="fill:#7F184C;" d="M231.915,395.565c-2.788,0-5.571-1.114-7.622-3.316c-3.92-4.209-3.687-10.798,0.521-14.719
		c17.495-16.299,47.968-26.424,79.528-26.424c33,0,62.652,9.978,79.319,26.69c4.062,4.073,4.052,10.666-0.019,14.727
		c-4.073,4.062-10.667,4.052-14.729-0.019c-12.653-12.688-37.396-20.569-64.571-20.569c-26.501,0-51.535,7.984-65.329,20.836
		C237.005,394.64,234.456,395.565,231.915,395.565z"/>
	<path style="fill:#7F184C;" d="M451.889,166.344H334.19c-5.752,0-10.414,4.663-10.414,10.414s4.663,10.414,10.414,10.414h38.943
		c4.716,19.914,22.645,34.776,43.98,34.776c24.918,0,45.19-20.273,45.19-45.19C462.304,171.005,457.641,166.344,451.889,166.344z
		 M417.113,201.12c-9.709,0-18.11-5.71-22.022-13.947h44.043C435.223,195.41,426.822,201.12,417.113,201.12z"/>
	<path style="fill:#7F184C;" d="M284.423,176.758c0-5.752-4.663-10.414-10.414-10.414H156.31c-5.752,0-10.414,4.663-10.414,10.414
		s4.663,10.414,10.414,10.414h38.943c4.716,19.914,22.645,34.776,43.98,34.776C264.151,221.949,284.423,201.675,284.423,176.758z
		 M217.211,187.173h44.043c-3.912,8.239-12.313,13.947-22.022,13.947C229.524,201.12,221.123,195.41,217.211,187.173z"/>
</g>
<ellipse transform="matrix(0.2723 -0.9622 0.9622 0.2723 145.7564 349.7408)" style="fill:#FCEB88;" cx="304.104" cy="78.506" rx="29.854" ry="53.46"/>
</svg>